<svg width="24" height="24" viewBox="0 0 24 24" fill="none" xmlns="http://www.w3.org/2000/svg">
<path fill-rule="evenodd" clip-rule="evenodd" d="M5.63379 10L20 10C20.5523 10 21 10.4477 21 11V22C21 22.5523 20.5523 23 20 23H4C3.44772 23 3 22.5523 3 22V12H5V21H19V12H5L5.63379 10Z" fill="#EB9105"/>
<path fill-rule="evenodd" clip-rule="evenodd" d="M2 7C2 6.44772 2.44772 6 3 6L21 6C21.5523 6 22 6.44772 22 7L22 11C22 11.5523 21.5523 12 21 12L3 12C2.44772 12 2 11.5523 2 11L2 7ZM4 8L4 10L20 10L20 8L4 8Z" fill="#EB9105"/>
<path fill-rule="evenodd" clip-rule="evenodd" d="M14.0686 3.67855C13.3234 4.79593 13 6.22536 13 6.99983H11C11 5.8561 11.4266 4.03562 12.4046 2.56894C13.4149 1.05398 15.1224 -0.207564 17.5808 0.263059C18.7994 0.49635 19.6936 1.14344 19.9693 2.20806C20.2135 3.15097 19.8829 4.12985 19.4546 4.89194C19.0087 5.68534 18.3537 6.43268 17.6511 6.98929C16.9803 7.52078 16.1116 7.99983 15.2356 7.99983V5.99983C15.4382 5.99983 15.8651 5.85271 16.4091 5.42166C16.9215 5.01572 17.4008 4.46413 17.7111 3.91203C18.039 3.32862 18.0866 2.91543 18.0332 2.70948C18.0114 2.62525 17.9325 2.36671 17.2047 2.22739C15.7703 1.95279 14.7815 2.60945 14.0686 3.67855Z" fill="#EB9105"/>
<path fill-rule="evenodd" clip-rule="evenodd" d="M9.98355 3.67855C10.7287 4.79593 11.0521 6.22536 11.0521 6.99983H13.0521C13.0521 5.8561 12.6256 4.03562 11.6475 2.56894C10.6373 1.05398 8.92971 -0.207564 6.47137 0.263059C5.25275 0.49635 4.35851 1.14344 4.08279 2.20806C3.83859 3.15097 4.16918 4.12985 4.59751 4.89194C5.04343 5.68534 5.69846 6.43268 6.401 6.98929C7.07185 7.52078 7.94053 7.99983 8.81648 7.99983V5.99983C8.61389 5.99983 8.18707 5.85271 7.64299 5.42166C7.13062 5.01572 6.6513 4.46413 6.341 3.91203C6.0131 3.32862 5.96557 2.91543 6.01891 2.70948C6.04073 2.62525 6.11966 2.36671 6.84742 2.22739C8.28181 1.95279 9.27062 2.60945 9.98355 3.67855Z" fill="#EB9105"/>
<path fill-rule="evenodd" clip-rule="evenodd" d="M9 11C9 10.4477 9.44772 10 10 10H14C14.5523 10 15 10.4477 15 11V18C15 18.4045 14.7564 18.7691 14.3827 18.9239C14.009 19.0787 13.5789 18.9931 13.2929 18.7071L12 17.4142L10.7071 18.7071C10.4211 18.9931 9.99099 19.0787 9.61732 18.9239C9.24364 18.7691 9 18.4045 9 18V11ZM11 12V15.5858C11.257 15.3288 11.6759 14.5 12 14.5C12.3241 14.5 12.743 15.3288 13 15.5858V12H11Z" fill="#EB9105"/>
</svg>
