<svg width="14" height="14" viewBox="0 0 14 14" fill="none" xmlns="http://www.w3.org/2000/svg">
<path d="M7.00004 1.66659C4.05452 1.66659 1.66671 4.0544 1.66671 6.99992C1.66671 9.94544 4.05452 12.3333 7.00004 12.3333C9.94556 12.3333 12.3334 9.94544 12.3334 6.99992C12.3334 4.0544 9.94556 1.66659 7.00004 1.66659ZM0.333374 6.99992C0.333374 3.31802 3.31814 0.333252 7.00004 0.333252C10.6819 0.333252 13.6667 3.31802 13.6667 6.99992C13.6667 10.6818 10.6819 13.6666 7.00004 13.6666C3.31814 13.6666 0.333374 10.6818 0.333374 6.99992Z" fill="#1C1D1F"/>
<path d="M7.00004 8.33325C6.63185 8.33325 6.33337 8.03478 6.33337 7.66659V6.99992C6.33337 6.63173 6.63185 6.33325 7.00004 6.33325C7.36823 6.33325 7.66671 6.63173 7.66671 6.99992V7.66659C7.66671 8.03478 7.36823 8.33325 7.00004 8.33325Z" fill="#1C1D1F"/>
<path d="M6.00004 9.99992C6.00004 9.44763 6.44776 8.99992 7.00004 8.99992C7.55233 8.99992 8.00004 9.44763 8.00004 9.99992C8.00004 10.5522 7.55233 10.9999 7.00004 10.9999C6.44776 10.9999 6.00004 10.5522 6.00004 9.99992Z" fill="#1C1D1F"/>
<path d="M7.26 4.2075C6.62198 4.17712 6.08697 4.53352 5.99097 5.10952C5.93044 5.4727 5.58696 5.71805 5.22377 5.65752C4.86059 5.59699 4.61525 5.2535 4.67578 4.89032C4.91311 3.46632 6.21144 2.82272 7.32342 2.87567C7.89302 2.9028 8.47841 3.10725 8.92916 3.52844C9.39111 3.9601 9.66671 4.57843 9.66671 5.33325C9.66671 6.19412 9.32798 6.83253 8.74484 7.22129C8.20941 7.57824 7.55306 7.66659 7.00004 7.66659C6.63185 7.66659 6.33337 7.36811 6.33337 6.99992C6.33337 6.63173 6.63185 6.33325 7.00004 6.33325C7.44702 6.33325 7.79067 6.25493 8.00524 6.11189C8.1721 6.00065 8.33337 5.80572 8.33337 5.33325C8.33337 4.92141 8.1923 4.66474 8.01884 4.50265C7.83417 4.33009 7.56539 4.22204 7.26 4.2075Z" fill="#1C1D1F"/>
</svg>
