<svg width="16" height="16" viewBox="0 0 16 16" fill="none" xmlns="http://www.w3.org/2000/svg">
<path d="M11.0797 0C11.1169 0 11.1541 0 11.1935 0C11.2848 1.12835 10.8541 1.97146 10.3307 2.58201C9.81712 3.18834 9.11383 3.7764 7.97635 3.68717C7.90047 2.57498 8.33186 1.79441 8.85458 1.18526C9.33936 0.617574 10.2281 0.112414 11.0797 0Z" fill="#1C1D1F"/>
<path d="M14.5221 11.7446C14.5221 11.7558 14.5221 11.7657 14.5221 11.7762C14.2025 12.7444 13.7465 13.5741 13.19 14.3442C12.6821 15.0432 12.0596 15.984 10.9481 15.984C9.98764 15.984 9.34969 15.3664 8.36536 15.3496C7.32413 15.3327 6.75152 15.866 5.79952 16.0002C5.69062 16.0002 5.58171 16.0002 5.47492 16.0002C4.77585 15.899 4.21167 15.3453 3.80066 14.8465C2.58869 13.3725 1.65215 11.4685 1.47791 9.0319C1.47791 8.79302 1.47791 8.55484 1.47791 8.31596C1.55168 6.57214 2.399 5.15432 3.52524 4.46719C4.11963 4.10185 4.93674 3.7906 5.84659 3.92971C6.23652 3.99014 6.63489 4.12363 6.98408 4.25571C7.315 4.38288 7.72882 4.60841 8.12086 4.59647C8.38644 4.58874 8.65061 4.45033 8.9183 4.35267C9.70239 4.06953 10.471 3.74493 11.4841 3.89739C12.7017 4.08147 13.5659 4.62246 14.0999 5.45714C13.0699 6.11265 12.2556 7.10049 12.3947 8.7874C12.5184 10.3197 13.4092 11.2162 14.5221 11.7446Z" fill="#1C1D1F"/>
</svg>
