<svg width="15" height="12" viewBox="0 0 15 12" fill="none" xmlns="http://www.w3.org/2000/svg">
<path d="M3.69543 0.861766C3.95577 0.601417 4.37788 0.601417 4.63823 0.861766L7.3049 3.52843C7.56525 3.78878 7.56525 4.21089 7.3049 4.47124C7.04455 4.73159 6.62244 4.73159 6.36209 4.47124L4.8335 2.94265V10.6665C4.8335 11.0347 4.53502 11.3332 4.16683 11.3332C3.79864 11.3332 3.50016 11.0347 3.50016 10.6665V2.94265L1.97157 4.47124C1.71122 4.73159 1.28911 4.73159 1.02876 4.47124C0.768409 4.21089 0.768409 3.78878 1.02876 3.52843L3.69543 0.861766ZM10.1668 9.05703V1.33317C10.1668 0.964981 10.4653 0.666504 10.8335 0.666504C11.2017 0.666504 11.5002 0.964981 11.5002 1.33317V9.05703L13.0288 7.52843C13.2891 7.26808 13.7112 7.26808 13.9716 7.52843C14.2319 7.78878 14.2319 8.21089 13.9716 8.47124L11.3049 11.1379C11.1799 11.2629 11.0103 11.3332 10.8335 11.3332C10.6567 11.3332 10.4871 11.2629 10.3621 11.1379L7.69543 8.47124C7.43508 8.21089 7.43508 7.78878 7.69543 7.52843C7.95577 7.26808 8.37788 7.26808 8.63823 7.52843L10.1668 9.05703Z" fill="#1C1D1F"/>
</svg>
