<svg width="14" height="14" viewBox="0 0 14 14" fill="none" xmlns="http://www.w3.org/2000/svg">
<path d="M7.00004 1.66683C4.05452 1.66683 1.66671 4.05464 1.66671 7.00016C1.66671 9.94568 4.05452 12.3335 7.00004 12.3335C9.94556 12.3335 12.3334 9.94568 12.3334 7.00016C12.3334 4.05464 9.94556 1.66683 7.00004 1.66683ZM0.333374 7.00016C0.333374 3.31826 3.31814 0.333496 7.00004 0.333496C10.6819 0.333496 13.6667 3.31826 13.6667 7.00016C13.6667 10.6821 10.6819 13.6668 7.00004 13.6668C3.31814 13.6668 0.333374 10.6821 0.333374 7.00016ZM3.66671 7.00016C3.66671 6.63197 3.96518 6.3335 4.33337 6.3335H9.66671C10.0349 6.3335 10.3334 6.63197 10.3334 7.00016C10.3334 7.36835 10.0349 7.66683 9.66671 7.66683H4.33337C3.96518 7.66683 3.66671 7.36835 3.66671 7.00016Z" fill="#E73D50"/>
</svg>
