<svg width="16" height="16" viewBox="0 0 16 16" fill="none" xmlns="http://www.w3.org/2000/svg">
<path fill-rule="evenodd" clip-rule="evenodd" d="M6.72415 1.06241C6.83115 0.82166 7.06989 0.666504 7.33335 0.666504C8.0406 0.666504 8.71887 0.947455 9.21897 1.44755C9.71907 1.94765 10 2.62593 10 3.33317V5.33317H13.1033C13.3918 5.3305 13.6775 5.39028 13.9407 5.50843C14.2052 5.62714 14.4408 5.80195 14.631 6.02073C14.8212 6.23951 14.9616 6.49703 15.0425 6.77546C15.1233 7.05389 15.1426 7.34657 15.0991 7.63321L14.1791 13.6331C14.1791 13.6333 14.1792 13.633 14.1791 13.6331C14.1067 14.1098 13.8644 14.5448 13.4971 14.8571C13.1306 15.1687 12.6641 15.3376 12.1832 15.3332H2.66669C2.13625 15.3332 1.62755 15.1225 1.25247 14.7474C0.877401 14.3723 0.666687 13.8636 0.666687 13.3332V8.6665C0.666687 8.13607 0.877401 7.62736 1.25247 7.25229C1.62755 6.87722 2.13625 6.6665 2.66669 6.6665H4.23344L6.72415 1.06241ZM5.33335 7.47465L7.73857 2.0629C7.9395 2.127 8.12427 2.23847 8.27616 2.39036C8.52621 2.64041 8.66669 2.97955 8.66669 3.33317V5.99984C8.66669 6.36803 8.96516 6.6665 9.33335 6.6665H13.1067L13.1142 6.66646C13.2109 6.66537 13.3066 6.6853 13.3948 6.72487C13.4829 6.76444 13.5614 6.82271 13.6249 6.89563C13.6883 6.96856 13.7351 7.0544 13.762 7.14721C13.7889 7.23993 13.7954 7.3374 13.7809 7.43286C13.781 7.43277 13.7809 7.43295 13.7809 7.43286L12.8609 13.4332C12.8368 13.5922 12.756 13.7371 12.6335 13.8412C12.511 13.9453 12.355 14.0017 12.1942 13.9999L5.33335 13.9998V7.47465ZM4.00002 13.9998V7.99984H2.66669C2.48988 7.99984 2.32031 8.07008 2.19528 8.1951C2.07026 8.32012 2.00002 8.48969 2.00002 8.6665V13.3332C2.00002 13.51 2.07026 13.6795 2.19528 13.8046C2.32031 13.9296 2.48988 13.9998 2.66669 13.9998H4.00002Z" fill="#1C1D1F"/>
</svg>
