<svg width="14" height="14" viewBox="0 0 14 14" fill="none" xmlns="http://www.w3.org/2000/svg">
<path d="M5.66665 1.66659C3.45751 1.66659 1.66665 3.45745 1.66665 5.66659C1.66665 7.87572 3.45751 9.66659 5.66665 9.66659C7.87579 9.66659 9.66665 7.87572 9.66665 5.66659C9.66665 3.45745 7.87579 1.66659 5.66665 1.66659ZM0.333313 5.66659C0.333313 2.72107 2.72113 0.333252 5.66665 0.333252C8.61217 0.333252 11 2.72107 11 5.66659C11 6.89906 10.5819 8.03389 9.87988 8.93701L13.4714 12.5285C13.7317 12.7889 13.7317 13.211 13.4714 13.4713C13.211 13.7317 12.7889 13.7317 12.5286 13.4713L8.93708 9.87982C8.03395 10.5819 6.89912 10.9999 5.66665 10.9999C2.72113 10.9999 0.333313 8.6121 0.333313 5.66659Z" fill="#585B60"/>
</svg>
