<svg width="16" height="17" viewBox="0 0 16 17" fill="none" xmlns="http://www.w3.org/2000/svg">
<g opacity="0.4">
<path d="M13.7984 5.12515C13.2484 5.12515 12.7215 5.38284 12.7215 5.93284V10.0098C12.7215 10.5598 13.2484 11.0482 13.7984 11.0482C14.3484 11.0482 14.8754 10.5598 14.8754 10.0098V6.00977C14.8754 5.45977 14.3484 5.12515 13.7984 5.12515ZM1.95229 5.12515C1.40229 5.12515 0.875366 5.45977 0.875366 6.00977V10.0098C0.875366 10.5598 1.40229 11.0482 1.95229 11.0482C2.50229 11.0482 3.02921 10.5598 3.02921 10.0098V6.00977C3.02921 5.45977 2.50226 5.12515 1.95229 5.12515ZM3.56767 11.5098C3.56767 12.3382 4.04693 13.0098 4.87537 13.0098H5.37537V15.0098C5.37537 15.5598 5.82537 16.0098 6.37537 16.0098C6.92537 16.0098 7.37537 15.5598 7.37537 15.0098V13.0098H8.37537V15.0098C8.37537 15.5598 8.82537 16.0098 9.37537 16.0098C9.92537 16.0098 10.3754 15.5598 10.3754 15.0098V13.0098H10.8754C11.7038 13.0098 12.1831 12.3382 12.1831 11.5098V5.93284H3.56767V11.5098ZM9.72846 1.40812L10.3613 0.192402C10.3931 0.131434 10.3691 0.0555587 10.3082 0.0238087C10.2473 -0.00794126 10.1713 0.0159962 10.1396 0.0769649L9.49712 1.31112C8.99402 1.11662 8.44721 1.00978 7.87537 1.00978C7.30355 1.00978 6.75674 1.11662 6.25355 1.31112L5.61112 0.0769962C5.57937 0.0160275 5.50352 -0.00791002 5.44252 0.02384C5.38152 0.0555899 5.35762 0.131434 5.38937 0.192434L6.02218 1.40818C4.60608 2.04909 3.74549 3.24779 3.56767 4.85592H12.1831C12.0053 3.24773 11.1446 2.04906 9.72846 1.40812ZM5.87537 4.23477C5.47496 4.23477 5.15037 3.91018 5.15037 3.50977C5.15037 3.10937 5.47496 2.78478 5.87537 2.78478C6.27577 2.78478 6.60037 3.10937 6.60037 3.50977C6.60033 3.91018 6.27577 4.23477 5.87537 4.23477ZM9.87537 4.23477C9.47499 4.23477 9.15034 3.91018 9.15034 3.50977C9.15034 3.10937 9.47499 2.78478 9.87537 2.78478C10.2757 2.78478 10.6003 3.10937 10.6003 3.50977C10.6003 3.91018 10.2757 4.23477 9.87537 4.23477Z" fill="#1C1D1F"/>
</g>
</svg>
